[2025-04-20 23:17:11] Starting video render process
[2025-04-20 23:17:11] Found audio file: assets/dynamic-video-template/temp_audio.mp3
[2025-04-20 23:17:11] Audio duration: 30 seconds
[2025-04-20 23:17:11] Rendering video with audio...
ffmpeg version 7.1.1 Copyright (c) 2000-2025 the FFmpeg developers
  built with Apple clang version 16.0.0 (clang-1600.0.26.6)
  configuration: --prefix=/usr/local/Cellar/ffmpeg/7.1.1_1 --enable-shared --enable-pthreads --enable-version3 --cc=clang --host-cflags= --host-ldflags='-Wl,-ld_classic' --enable-ffplay --enable-gnutls --enable-gpl --enable-libaom --enable-libaribb24 --enable-libbluray --enable-libdav1d --enable-libharfbuzz --enable-libjxl --enable-libmp3lame --enable-libopus --enable-librav1e --enable-librist --enable-librubberband --enable-libsnappy --enable-libsrt --enable-libssh --enable-libsvtav1 --enable-libtesseract --enable-libtheora --enable-libvidstab --enable-libvmaf --enable-libvorbis --enable-libvpx --enable-libwebp --enable-libx264 --enable-libx265 --enable-libxml2 --enable-libxvid --enable-lzma --enable-libfontconfig --enable-libfreetype --enable-frei0r --enable-libass --enable-libopencore-amrnb --enable-libopencore-amrwb --enable-libopenjpeg --enable-libspeex --enable-libsoxr --enable-libzmq --enable-libzimg --disable-libjack --disable-indev=jack --enable-videotoolbox --enable-audiotoolbox
  libavutil      59. 39.100 / 59. 39.100
  libavcodec     61. 19.101 / 61. 19.101
  libavformat    61.  7.100 / 61.  7.100
  libavdevice    61.  3.100 / 61.  3.100
  libavfilter    10.  4.100 / 10.  4.100
  libswscale      8.  3.100 /  8.  3.100
  libswresample   5.  3.100 /  5.  3.100
  libpostproc    58.  3.100 / 58.  3.100
Input #0, png_pipe, from 'scene.png':
  Duration: N/A, bitrate: N/A
  Stream #0:0: Video: png, rgb24(pc, gbr/unknown/unknown), 500x600, 25 fps, 25 tbr, 25 tbn
Input #1, mp3, from 'assets/dynamic-video-template/temp_audio.mp3':
  Metadata:
    album           : Underground Existence
    artist          : Tyrel WIlliams
    title           : Tyrel WIlliams Live at Podlasie 2024
    DDJ/VER         : 0100
    date            : 2024
    encoder         : Lavf60.3.100
  Duration: 00:00:30.04, start: 0.025057, bitrate: 128 kb/s
  Stream #1:0: Audio: mp3 (mp3float), 44100 Hz, stereo, fltp, 128 kb/s
      Metadata:
        encoder         : Lavc60.3.
Stream mapping:
  Stream #0:0 -> #0:0 (png (native) -> h264 (libx264))
  Stream #1:0 -> #0:1 (mp3 (mp3float) -> aac (native))
Press [q] to stop, [?] for help
[libx264 @ 0x7fe03db0fc00] using cpu capabilities: MMX2 SSE2Fast SSSE3 SSE4.2 AVX FMA3 BMI2 AVX2
[libx264 @ 0x7fe03db0fc00] profile High, level 3.0, 4:2:0, 8-bit
[libx264 @ 0x7fe03db0fc00] 264 - core 164 r3108 31e19f9 - H.264/MPEG-4 AVC codec - Copyleft 2003-2023 - http://www.videolan.org/x264.html - options: cabac=1 ref=3 deblock=1:0:0 analyse=0x3:0x113 me=hex subme=7 psy=1 psy_rd=1.00:0.00 mixed_ref=1 me_range=16 chroma_me=1 trellis=1 8x8dct=1 cqm=0 deadzone=21,11 fast_pskip=1 chroma_qp_offset=-2 threads=18 lookahead_threads=3 sliced_threads=0 nr=0 decimate=1 interlaced=0 bluray_compat=0 constrained_intra=0 bframes=3 b_pyramid=2 b_adapt=1 b_bias=0 direct=1 weightb=1 open_gop=0 weightp=2 keyint=250 keyint_min=25 scenecut=40 intra_refresh=0 rc_lookahead=40 rc=crf mbtree=1 crf=23.0 qcomp=0.60 qpmin=0 qpmax=69 qpstep=4 ip_ratio=1.40 aq=1:1.00
Output #0, mp4, to 'output.mp4':
  Metadata:
    encoder         : Lavf61.7.100
  Stream #0:0: Video: h264 (avc1 / 0x31637661), yuv420p(tv, progressive), 500x600, q=2-31, 30 fps, 15360 tbn
      Metadata:
        encoder         : Lavc61.19.101 libx264
      Side data:
        cpb: bitrate max/min/avg: 0/0/0 buffer size: 0 vbv_delay: N/A
  Stream #0:1: Audio: aac (LC) (mp4a / 0x6134706D), 44100 Hz, stereo, fltp, 128 kb/s
      Metadata:
        encoder         : Lavc61.19.101 aac
frame=  143 fps=0.0 q=29.0 size=       0KiB time=00:00:04.70 bitrate=   0.1kbits/s speed=9.39x    frame=  286 fps=284 q=29.0 size=       0KiB time=00:00:09.46 bitrate=   0.0kbits/s speed=9.42x    frame=  490 fps=325 q=29.0 size=     256KiB time=00:00:16.20 bitrate= 129.4kbits/s speed=10.8x    frame=  696 fps=347 q=29.0 size=     512KiB time=00:00:23.13 bitrate= 181.3kbits/s speed=11.5x    [out#0/mp4 @ 0x7fe03db0ee40] video:232KiB audio:475KiB subtitle:0KiB other streams:0KiB global headers:0KiB muxing overhead: 4.805643%
frame=  966 fps=387 q=-1.0 Lsize=     741KiB time=00:00:30.00 bitrate= 202.4kbits/s speed=  12x    
[libx264 @ 0x7fe03db0fc00] frame I:4     Avg QP:15.38  size: 49444
[libx264 @ 0x7fe03db0fc00] frame P:243   Avg QP:14.93  size:   105
[libx264 @ 0x7fe03db0fc00] frame B:719   Avg QP:23.33  size:    19
[libx264 @ 0x7fe03db0fc00] consecutive B-frames:  0.7%  0.0%  0.3% 99.0%
[libx264 @ 0x7fe03db0fc00] mb I  I16..4: 18.8% 29.5% 51.7%
[libx264 @ 0x7fe03db0fc00] mb P  I16..4:  0.0%  0.0%  0.0%  P16..4:  1.9%  0.0%  0.1%  0.0%  0.0%    skip:98.0%
[libx264 @ 0x7fe03db0fc00] mb B  I16..4:  0.0%  0.0%  0.0%  B16..8:  0.0%  0.0%  0.0%  direct: 0.0%  skip:100.0%  L0: 6.4% L1:93.6% BI: 0.0%
[libx264 @ 0x7fe03db0fc00] 8x8 transform intra:30.4% inter:97.9%
[libx264 @ 0x7fe03db0fc00] coded y,uvDC,uvAC intra: 74.1% 70.4% 61.8% inter: 0.1% 0.3% 0.0%
[libx264 @ 0x7fe03db0fc00] i16 v,h,dc,p: 26% 26% 44%  3%
[libx264 @ 0x7fe03db0fc00] i8 v,h,dc,ddl,ddr,vr,hd,vl,hu: 12% 10% 52%  6%  4%  4%  3%  4%  5%
[libx264 @ 0x7fe03db0fc00] i4 v,h,dc,ddl,ddr,vr,hd,vl,hu: 50% 32%  6%  2%  1%  2%  1%  3%  2%
[libx264 @ 0x7fe03db0fc00] i8c dc,h,v,p: 54% 15% 26%  5%
[libx264 @ 0x7fe03db0fc00] Weighted P-Frames: Y:0.0% UV:0.0%
[libx264 @ 0x7fe03db0fc00] ref P L0: 97.7%  0.0%  0.5%  1.8%
[libx264 @ 0x7fe03db0fc00] ref B L1: 91.8%  8.2%
[libx264 @ 0x7fe03db0fc00] kb/s:58.86
[aac @ 0x7fe03cf1bc40] Qavg: 716.974
[2025-04-20 23:17:14] Video render complete. Details:
Duration: 32.200000s
Size: 741K
[2025-04-20 23:17:14] Output saved to: /Users/bryanballi/Faceless_video_maker/output.mp4
